<?xml version="1.0" encoding="UTF-8"?>
<svg version="1.1" xmlns="http://www.w3.org/2000/svg" width="64" height="64">
<path d="M0 0 C1.8125 0.1875 1.8125 0.1875 4 1 C4.41765625 1.82757813 4.8353125 2.65515625 5.265625 3.5078125 C6.78192562 6.26824994 6.78192562 6.26824994 9.77734375 6.69921875 C12.96482894 6.68739866 15.87233137 6.63591603 19 6 C21.71036916 3.19003917 21.71036916 3.19003917 23 0 C23.66 0 24.32 0 25 0 C27.05526091 7.85663566 28.51523882 15.7200464 29.6875 23.75 C29.81874268 24.62422607 29.94998535 25.49845215 30.08520508 26.39916992 C30.8721858 31.98826369 31.11995992 37.35617133 31 43 C-4.85948398 45.06099732 -4.85948398 45.06099732 -12 40 C-12.66 39.34 -13.32 38.68 -14 38 C-13.77553594 31.82723834 -13.77553594 31.82723834 -11.125 29 C-9 28 -9 28 -6 29 C-6 29.66 -6 30.32 -6 31 C-6.99 31.66 -7.98 32.32 -9 33 C-8.73323796 34.98491642 -8.73323796 34.98491642 -8 37 C-7.01 37.33 -6.02 37.66 -5 38 C-4.96261719 37.14921875 -4.92523438 36.2984375 -4.88671875 35.421875 C-4.46379475 27.6268052 -3.66461299 19.97108263 -2.5 12.25 C-2.36940186 11.38084961 -2.23880371 10.51169922 -2.10424805 9.61621094 C-1.58453885 6.27874974 -1.07099915 3.21299745 0 0 Z " fill="#1F3D67" transform="translate(21,10)"/>
<path d="M0 0 C0 0.66 0 1.32 0 2 C-0.99 2.66 -1.98 3.32 -3 4 C-3.25015873 7.58357241 -3.25015873 7.58357241 -3 11 C1.29930476 12.02992723 5.52668984 12.21399703 9.92578125 12.31640625 C11.04716743 12.3475779 11.04716743 12.3475779 12.19120789 12.37937927 C14.56488396 12.44444189 16.93866487 12.5035571 19.3125 12.5625 C20.92774495 12.60572646 22.54297953 12.64934204 24.15820312 12.69335938 C28.10536299 12.80007851 32.05262767 12.90146619 36 13 C36 10.69 36 8.38 36 6 C36.33 6 36.66 6 37 6 C37 8.64 37 11.28 37 14 C1.14051602 16.06099732 1.14051602 16.06099732 -6 11 C-6.66 10.34 -7.32 9.68 -8 9 C-7.77553594 2.82723834 -7.77553594 2.82723834 -5.125 0 C-3 -1 -3 -1 0 0 Z " fill="#757F90" transform="translate(15,39)"/>
<path d="M0 0 C0.66 0 1.32 0 2 0 C4.23443486 8.96753189 5.8322916 17.83692346 7 27 C6.34 27.33 5.68 27.66 5 28 C4.88406494 27.37432129 4.76812988 26.74864258 4.64868164 26.10400391 C4.12306613 23.27708033 3.59284139 20.45104062 3.0625 17.625 C2.78889648 16.14773437 2.78889648 16.14773437 2.50976562 14.640625 C2.33251953 13.69960938 2.15527344 12.75859375 1.97265625 11.7890625 C1.81031494 10.91975098 1.64797363 10.05043945 1.48071289 9.15478516 C1.0834101 6.96537634 1.0834101 6.96537634 0 5 C-0.66 5 -1.32 5 -2 5 C-2.33 5.99 -2.66 6.98 -3 8 C-3.33 7.34 -3.66 6.68 -4 6 C-2.7260411 3.96166576 -1.38938077 1.96147874 0 0 Z " fill="#43556D" transform="translate(44,10)"/>
<path d="M0 0 C1.8125 0.1875 1.8125 0.1875 4 1 C5.8125 3.4375 5.8125 3.4375 7 6 C6.67 6.66 6.34 7.32 6 8 C4.68 7.34 3.36 6.68 2 6 C1.34 7.98 0.68 9.96 0 12 C-0.33 12 -0.66 12 -1 12 C-1.02712066 10.56260487 -1.04645067 9.12506137 -1.0625 7.6875 C-1.07410156 6.88699219 -1.08570312 6.08648437 -1.09765625 5.26171875 C-1 3 -1 3 0 0 Z " fill="#38567D" transform="translate(21,10)"/>
<path d="M0 0 C0.99 0.33 1.98 0.66 3 1 C3 1.66 3 2.32 3 3 C2.01 3.66 1.02 4.32 0 5 C-0.66 5.99 -1.32 6.98 -2 8 C-2.33 6.02 -2.66 4.04 -3 2 C-2.01 1.34 -1.02 0.68 0 0 Z " fill="#364760" transform="translate(12,38)"/>
<path d="M0 0 C0.66 0 1.32 0 2 0 C2.33 1.98 2.66 3.96 3 6 C1.68 5.34 0.36 4.68 -1 4 C-1.33 4.99 -1.66 5.98 -2 7 C-2.33 6.34 -2.66 5.68 -3 5 C-1.6875 2.375 -1.6875 2.375 0 0 Z " fill="#2D517E" transform="translate(43,11)"/>
</svg>
