<svg xmlns="http://www.w3.org/2000/svg" viewBox="0 0 225.4 225.4" width="225.4" height="225.4">
  <defs>
    <style>.h{fill:#0e1e7d}.h2{fill-rule:evenodd;fill:#0e1e7d}</style>
  </defs>
  <rect class="h" x="197.75" y="83.54" width="3.42" height="3.42" transform="translate(-15.64 57.27) rotate(-15.73)"/>
  <polygon class="h2" points="196.17 106.2 202.75 100.94 208.34 100.24 208.4 100.23 208.43 100.23 208.42 100.2 208.42 100.14 208.19 98.49 208.19 98.44 208.18 98.41 208.16 98.41 208.1 98.42 202.69 99.09 194.75 95.63 194.66 95.59 194.61 95.57 194.62 95.62 194.63 95.72 194.88 97.55 194.88 97.58 194.88 97.6 194.9 97.6 194.93 97.62 200.98 100.24 195.82 104.3 195.8 104.32 195.78 104.33 195.79 104.35 195.79 104.38 196.03 106.14 196.04 106.24 196.05 106.29 196.09 106.26 196.17 106.2"/>
  <polygon class="h2" points="197.63 108.2 197.53 112.6 208.82 112.86 208.88 112.86 208.91 112.86 208.91 112.89 208.91 112.94 208.87 114.61 208.87 114.67 208.87 114.7 208.84 114.7 208.78 114.7 197.49 114.44 197.38 118.83 197.38 118.89 197.38 118.92 197.35 118.92 197.29 118.92 195.76 118.88 195.71 118.88 195.68 118.88 195.68 118.85 195.68 118.79 195.93 108.17 195.94 108.11 195.94 108.08 195.97 108.08 196.02 108.08 197.55 108.12 197.61 108.12 197.63 108.12 197.63 108.15 197.63 108.2"/>
  <polygon class="h2" points="195.64 121.09 195.06 126.01 195.05 126.06 195.04 126.09 195.07 126.09 195.13 126.1 196.44 126.25 196.5 126.26 196.52 126.26 196.53 126.23 196.53 126.17 196.72 124.63 206.76 125.77 206.57 127.32 206.57 127.37 206.56 127.4 206.59 127.41 206.65 127.41 207.96 127.56 208.01 127.57 208.04 127.57 208.05 127.54 208.05 127.48 208.64 122.57 208.64 122.51 208.65 122.48 208.62 122.48 208.56 122.47 207.25 122.33 207.2 122.32 207.17 122.31 207.16 122.34 207.16 122.4 206.97 123.94 196.94 122.8 197.12 121.26 197.13 121.2 197.13 121.17 197.1 121.17 197.04 121.16 195.74 121.02 195.68 121.01 195.65 121 195.65 121.03 195.64 121.09"/>
  <path class="h2" d="M100.37,101.84C69.19,99.8,50,116.76,54.75,134c3.53,12.77,17.42,20.2,31.36,22.7,13,2.34,28,1.37,40.9-2.18,18.68-5.13,35.87-15.15,40.4-28.09-11.9,15.48-33.79,20.81-51.91,21.38-19.2.61-43.91-4.13-46.89-22.17C66.08,110.35,87.59,101.8,100.37,101.84Z"/>
  <path class="h2" d="M89.29,70s9.07,2.39,15.13,6.58c14.44,10,21.82,29.49,13.33,45.32-4.57,8.52-12.84,14.92-21.38,18.38,0,0-5.11,1.72-8.62,3.17-.78.31,17.29-6.29,21.54-17,6.2-15.68-3-34.3-25-36.48Z"/>
  <path class="h2" d="M118.14,58.93a40.92,40.92,0,0,1,17.45,22.68c5.34,16.81-2.12,36.54-14.36,47.66-7.37,6-16.29,10-26,13.31,0,0,10.64-5.24,12.51-7.08A33.69,33.69,0,0,0,123.65,114c2.79-12.55-3.07-28.6-13-36.82Z"/>
  <path class="h2" d="M153.59,64.79c8,19.27,1.52,38.32-6.47,49.26-8.66,11.85-23.09,20.42-40.47,25.88C121.22,133.25,131,124.48,137,109c3.07-8,5.12-18.33.61-32.4Z"/>
</svg>
